<?xml version="1.0" encoding="UTF-8"?>
<svg width="96px" height="78px" viewBox="0 0 96 78" version="1.1" xmlns="http://www.w3.org/2000/svg" xmlns:xlink="http://www.w3.org/1999/xlink">
    <!-- Generator: Sketch 49.2 (51160) - http://www.bohemiancoding.com/sketch -->
    <title>baoleme_logo_cat</title>
    <desc>Created with Sketch.</desc>
    <defs></defs>
    <g id="baoleme_logo_cat" stroke="none" stroke-width="1" fill="none" fill-rule="evenodd">
        <g id="Group" transform="translate(-3.000000, 0.000000)" fill="#FCC138">
            <path d="M98.125,45.0826635 C94.7780842,44.4298261 91.7518921,43.9040791 88.7622684,43.2194691 C87.8078908,43.0000582 87.350485,43.1954898 86.8349293,43.9784151 C85.3410167,46.2504571 83.723011,48.4409694 82.2410881,50.7196058 C81.9821112,51.1176628 82.0144833,51.8232547 82.1385764,52.3316166 C82.7602407,54.8824185 83.4754244,57.409241 84.1120757,59.9570454 C84.2535538,60.5211593 84.2133884,61.1314333 84.2619466,61.7914646 C79.5356195,62.6205501 75.4687242,61.5378831 72.0732503,58.2808898 C71.1662319,57.409241 70.331751,56.8900884 68.9847118,56.8715044 C65.1827882,56.8193493 61.5744976,55.893747 58.4338042,53.6402889 C57.518393,52.9844541 57.0981552,53.527586 56.5694108,54.0749144 C52.882588,57.8894272 48.5519199,60.5966942 43.316032,61.7219245 C36.6036165,63.1654805 30.2239142,61.918555 24.0852043,59.1621304 C21.8275498,58.1490035 19.7011823,56.8421297 17.2582874,55.8110183 C18.4332749,57.0447551 19.5027533,58.4061819 20.8024332,59.4894483 C25.9466002,63.777553 32.0655272,65.2684682 38.6010951,65.3368093 C43.8327867,65.3913623 48.9403852,64.5952484 53.745844,62.4383071 C55.2763251,61.7518987 56.707292,60.8113092 58.1070857,59.8725182 C60.0452155,58.5728382 62.0738673,57.5974788 64.44962,57.5177475 C67.0699619,57.4308224 69.32342,58.1981611 70.6410845,60.6050869 C72.0198963,63.1247156 71.4066247,65.5478275 69.8395752,67.767115 C66.4656826,72.5449976 61.6134641,75.1587452 56.1000153,76.3996758 C42.3077009,79.5044003 29.5153249,77.1064668 18.1910836,68.4816992 C11.3971383,63.3075581 7.43755052,56.1803 5.39870751,47.9493931 C4.01989571,42.3831898 3.39343557,36.7678288 4.29985445,31.0505557 C5.84112625,21.3269351 10.8438152,13.7638527 18.6664739,7.94226947 C23.0085321,4.71045451 27.795407,2.47617991 33.1218169,1.47204523 C40.5733955,0.0674556439 47.8097595,0.9966549 54.8650795,3.62658854 C59.1346002,5.21821694 63.1475421,7.29003154 66.7120703,10.1651539 C67.1005355,10.4780842 67.5705305,10.7496502 67.8295073,11.1519035 C69.9570739,14.4532586 73.3855194,15.8476569 76.755815,17.3487634 C81.9875066,19.6795548 85.7049031,23.6691168 88.3006662,28.6160537 C89.4510748,30.8089639 91.2015663,32.0510935 93.0677581,33.3417813 C95.8463636,35.2625261 96.9422193,38.1766148 97.6765864,41.2711481 C97.926571,42.322642 97.9397596,43.4316862 98.125,45.0826635" id="Fill-1"></path>
        </g>
    </g>
</svg>